#!OML:ASF H:\LiuWeirdWalks\Patient Classification 1\Patient 1\Session 1\male.ASF
:FULLY-SPECIFIED
:DEGREES
1371
root 1.3199 18.2321 34.0643 1.93357 6.44039 10.1685
lowerback 10.4537 -0.337062 0.0183784
upperback 0.159401 -0.0597571 6.33085
thorax -5.71199 0.068876 6.71576
lowerneck -21.7197 2.95845 9.52693
upperneck 12.3039 5.21492 -22.1756
head 8.40939 0.823447 -8.63525
rclavicle 3.57812e-015 2.22639e-014
rhumerus -24.8262 -34.7812 -25.1859
rradius 35.1026
rwrist 0.0456302
rhand -23.699 -2.94467
rfingers 7.12502
rthumb 2.76809 -32.9065
lclavicle 3.57812e-015 2.22639e-014
lhumerus -29.7793 -4.94288 30.7532
lradius 43.4297
lwrist 41.9436
lhand -33.8238 -10.384
lfingers 7.12502
lthumb -7.00945 19.48
rfemur -13.9625 -9.43215 8.4575
rtibia 32.2604
rfoot -12.1043 -14.295
rtoes -4.01325
lfemur -3.97941 1.1354 -22.6404
ltibia 22.7229
lfoot -8.90791 10.4021
ltoes -18.5569
1372
root 1.32471 18.2273 34.085 2.07473 6.45875 10.2495
lowerback 10.3338 -0.35989 -0.200956
upperback 0.123442 -0.125223 6.23462
thorax -5.67408 0.0407284 6.74559
lowerneck -21.7949 2.96989 9.51544
upperneck 12.344 5.21819 -22.076
head 8.4312 0.827536 -8.59789
rclavicle -3.57812e-015 4.45278e-014
rhumerus -24.9124 -35.0894 -25.0134
rradius 35.0064
rwrist 0.516025
rhand -23.5383 -2.7058
rfingers 7.12502
rthumb 2.92329 -32.6655
lclavicle -3.57812e-015 4.45278e-014
lhumerus -29.8032 -4.84125 30.8865
lradius 43.4185
lwrist 42.0364
lhand -33.843 -10.3035
lfingers 7.12502
lthumb -7.02798 19.5598
rfemur -14.0776 -9.40438 8.35787
rtibia 32.4037
rfoot -12.3314 -14.3022
rtoes -3.91164
lfemur -4.07519 1.16756 -22.878
ltibia 21.6944
lfoot -9.13651 10.7568
ltoes -18.5681
1373
root 1.33028 18.2218 34.1053 2.21736 6.48645 10.3321
lowerback 10.2184 -0.38148 -0.419547
upperback 0.0821981 -0.1882 6.13405
thorax -5.6444 0.0139497 6.7701
lowerneck -21.8618 2.97553 9.50409
upperneck 12.3839 5.21311 -21.9743
head 8.44979 0.828388 -8.56079
rclavicle -3.29983e-014 -2.8625e-014
rhumerus -25.0398 -35.4244 -24.7965
rradius 34.9062
rwrist 1.03911
rhand -23.3508 -2.42521
rfingers 7.12502
rthumb 3.1043 -32.3824
lclavicle -3.29983e-014 -2.8625e-014
lhumerus -29.8095 -4.79432 31.0396
lradius 43.4198
lwrist 42.2886
lhand -33.9421 -10.1362
lfingers 7.12502
lthumb -7.12369 19.7239
rfemur -14.1961 -9.39981 8.25466
rtibia 32.5549
rfoot -12.553 -14.2999
rtoes -3.8319
lfemur -4.17865 1.16978 -23.1225
ltibia 20.6915
lfoot -9.36357 11.1074
ltoes -18.5891
1374
root 1.33594 18.2158 34.1254 2.37275 6.53692 10.4017
lowerback 10.0948 -0.405221 -0.626788
upperback 0.0330794 -0.251922 6.03448
thorax -5.61811 -0.0132909 6.78915
lowerneck -21.9357 2.9705 9.47674
upperneck 12.4274 5.19503 -21.857
head 8.46734 0.823202 -8.51686
rclavicle -2.14687e-014 -9.54166e-015
rhumerus -25.1907 -35.6355 -24.5985
rradius 34.8792
rwrist 1.25261
rhand -23.3041 -2.40329
rfingers 7.12502
rthumb 3.14938 -32.3598
lclavicle -2.14687e-014 -9.54166e-015
lhumerus -29.8069 -4.7572 31.2034
lradius 43.41
lwrist 42.5255
lhand -34.0487 -10.0147
lfingers 7.12502
lthumb -7.22653 19.8419
rfemur -14.3281 -9.42175 8.16889
rtibia 32.7128
rfoot -12.7628 -14.3022
rtoes -3.77415
lfemur -4.30817 1.13206 -23.3545
ltibia 19.7234
lfoot -9.57972 11.4605
ltoes -18.6289
1375
root 1.34273 18.2092 34.1437 2.50805 6.59494 10.4602
lowerback 9.98329 -0.431115 -0.828953
upperback -0.0137096 -0.316971 5.93839
thorax -5.59585 -0.0412071 6.80944
lowerneck -21.9643 2.95773 9.45081
upperneck 12.4525 5.16472 -21.7402
head 8.46851 0.815484 -8.4732
rclavicle -9.54166e-015 -5.40694e-014
rhumerus -25.3622 -35.7523 -24.396
rradius 34.8701
rwrist 1.35494
rhand -23.3029 -2.42455
rfingers 7.12502
rthumb 3.15059 -32.381
lclavicle -9.54166e-015 -5.40694e-014
lhumerus -29.82 -4.72416 31.3718
lradius 43.4212
lwrist 42.7394
lhand -34.141 -9.86189
lfingers 7.12502
lthumb -7.31565 19.9916
rfemur -14.447 -9.46309 8.08941
rtibia 32.8741
rfoot -12.9544 -14.2961
rtoes -3.76453
lfemur -4.43283 1.05579 -23.5789
ltibia 18.7967
lfoot -9.77911 11.832
ltoes -18.6643
1376
root 1.35014 18.2023 34.1616 2.64061 6.66075 10.5068
lowerback 9.87549 -0.459459 -1.02555
upperback -0.0598023 -0.384024 5.84398
thorax -5.57448 -0.070223 6.82862
lowerneck -22.0123 2.94622 9.42638
upperneck 12.4872 5.13477 -21.6153
head 8.4761 0.807395 -8.42765
rclavicle -1.11319e-014 -6.36111e-015
rhumerus -25.5257 -35.8276 -24.1954
rradius 34.8307
rwrist 1.39341
rhand -23.3334 -2.42845
rfingers 7.12502
rthumb 3.12111 -32.3853
lclavicle -1.11319e-014 -6.36111e-015
lhumerus -29.8506 -4.64651 31.5316
lradius 43.4131
lwrist 42.7652
lhand -34.1497 -9.75986
lfingers 7.12502
lthumb -7.32402 20.0934
rfemur -14.567 -9.52247 8.02108
rtibia 33.0344
rfoot -13.1281 -14.2861
rtoes -3.78757
lfemur -4.57584 0.953189 -23.79
ltibia 17.9326
lfoot -9.96495 12.2129
ltoes -18.6815
1377
root 1.35834 18.1957 34.1791 2.77612 6.72761 10.5363
lowerback 9.76186 -0.493052 -1.22043
upperback -0.104128 -0.457184 5.75738
thorax -5.54692 -0.102356 6.85583
lowerneck -22.0771 2.94895 9.42535
upperneck 12.5137 5.11806 -21.5048
head 8.4877 0.804972 -8.39011
rclavicle -9.93923e-015 -2.8625e-014
rhumerus -25.6566 -35.9013 -24.0026
rradius 34.7395
rwrist 1.42803
rhand -23.3959 -2.36565
rfingers 7.12502
rthumb 3.06073 -32.3234
lclavicle -9.93923e-015 -2.8625e-014
lhumerus -29.8989 -4.52193 31.6822
lradius 43.3943
lwrist 42.6847
lhand -34.1149 -9.64984
lfingers 7.12502
lthumb -7.29048 20.2046
rfemur -14.6962 -9.59482 7.9696
rtibia 33.1927
rfoot -13.2827 -14.2721
rtoes -3.82557
lfemur -4.74207 0.825376 -23.9841
ltibia 17.1306
lfoot -10.1365 12.6213
ltoes -18.7044
1378
root 1.36784 18.1909 34.1956 3.00731 6.78067 10.4951
lowerback 9.55094 -0.531486 -1.33908
upperback -0.172934 -0.527268 5.69001
thorax -5.49095 -0.135094 6.85674
lowerneck -22.1453 2.95893 9.43579
upperneck 12.5278 5.10648 -21.3991
head 8.49722 0.805501 -8.35523
rclavicle 9.54166e-015 -5.08889e-014
rhumerus -25.7407 -36.0228 -23.8059
rradius 34.5615
rwrist 1.52917
rhand -23.4716 -2.21951
rfingers 7.12502
rthumb 2.98769 -32.1783
lclavicle 9.54166e-015 -5.08889e-014
lhumerus -29.962 -4.33451 31.8234
lradius 43.3637
lwrist 42.5144
lhand -34.0271 -9.57842
lfingers 7.12502
lthumb -7.20573 20.2789
rfemur -14.9516 -9.67207 8.01282
rtibia 33.3465
rfoot -13.4058 -14.2674
rtoes -3.8679
lfemur -5.0445 0.673739 -24.1043
ltibia 16.3965
lfoot -10.2701 13.0554
ltoes -18.6902
1379
root 1.37842 18.1859 34.2114 3.22019 6.82591 10.4598
lowerback 9.36263 -0.568941 -1.4739
upperback -0.236467 -0.597125 5.62286
thorax -5.44189 -0.167206 6.86755
lowerneck -22.2031 2.97223 9.45539
upperneck 12.5295 5.09625 -21.2996
head 8.50157 0.807641 -8.32336
rclavicle 2.38542e-015 2.8625e-014
rhumerus -25.799 -36.1704 -23.5983
rradius 34.3223
rwrist 1.68994
rhand -23.5561 -2.01731
rfingers 7.12502
rthumb 2.90604 -31.9773
lclavicle 2.38542e-015 2.8625e-014
lhumerus -30.0399 -4.10518 31.961
lradius 43.3267
lwrist 42.2908
lhand -33.9049 -9.48792
lfingers 7.12502
lthumb -7.08779 20.3734
rfemur -15.1914 -9.75095 8.04224
rtibia 33.4974
rfoot -13.5172 -14.2539
rtoes -3.89782
lfemur -5.33992 0.492874 -24.2307
ltibia 15.7249
lfoot -10.3562 13.5168
ltoes -18.649
1380
root 1.3901 18.1813 34.2267 3.43327 6.85951 10.4158
lowerback 9.17286 -0.602356 -1.60302
upperback -0.299057 -0.660507 5.55517
thorax -5.3917 -0.196352 6.87329
lowerneck -22.2427 2.98115 9.47715
upperneck 12.5199 5.07737 -21.196
head 8.49725 0.807576 -8.29068
rclavicle 2.78299e-014 -3.18055e-014
rhumerus -25.8656 -36.3218 -23.3799
rradius 34.0733
rwrist 1.88316
rhand -23.6458 -1.81119
rfingers 7.12502
rthumb 2.81941 -31.7723
lclavicle 2.78299e-014 -3.18055e-014
lhumerus -30.1117 -3.87 32.0993
lradius 43.2893
lwrist 42.1135
lhand -33.807 -9.39141
lfingers 7.12502
lthumb -6.99326 20.4731
rfemur -15.4392 -9.82458 8.07842
rtibia 33.6452
rfoot -13.6169 -14.239
rtoes -3.92158
lfemur -5.64632 0.299311 -24.3456
ltibia 15.1086
lfoot -10.3737 13.9883
ltoes -18.605
1381
root 1.40271 18.1758 34.2415 3.59603 6.87823 10.3877
lowerback 9.03688 -0.630591 -1.76707
upperback -0.349267 -0.720088 5.4863
thorax -5.35881 -0.22244 6.89875
lowerneck -22.2613 2.9887 9.50057
upperneck 12.496 5.05497 -21.0938
head 8.48391 0.807446 -8.25813
rclavicle 1.27222e-014 2.54444e-014
rhumerus -25.9182 -36.4329 -23.1658
rradius 33.813
rwrist 2.05774
rhand -23.7545 -1.63633
rfingers 7.12502
rthumb 2.71446 -31.5988
lclavicle 1.27222e-014 2.54444e-014
lhumerus -30.1987 -3.64405 32.2442
lradius 43.266
lwrist 42.0074
lhand -33.7457 -9.25257
lfingers 7.12502
lthumb -6.9341 20.6139
rfemur -15.6373 -9.88091 8.08541
rtibia 33.7942
rfoot -13.7121 -14.2229
rtoes -3.94482
lfemur -5.88325 0.0971493 -24.4735
ltibia 14.5162
lfoot -10.2793 14.4497
ltoes -18.5527
1382
root 1.41579 18.1693 34.2562 3.68552 6.88786 10.381
lowerback 8.97181 -0.651327 -1.97609
upperback -0.380159 -0.774276 5.41331
thorax -5.34567 -0.244483 6.94681
lowerneck -22.2706 2.9829 9.49584
upperneck 12.4856 5.01979 -20.9625
head 8.46914 0.802438 -8.2117
rclavicle -1.82882e-014 -2.8625e-014
rhumerus -25.9898 -36.477 -22.9561
rradius 33.5895
rwrist 2.17359
rhand -23.8805 -1.49005
rfingers 7.12502
rthumb 2.5928 -31.454
lclavicle -1.82882e-014 -2.8625e-014
lhumerus -30.2968 -3.42303 32.3932
lradius 43.2435
lwrist 41.8831
lhand -33.6931 -9.14905
lfingers 7.12502
lthumb -6.88327 20.7191
rfemur -15.7545 -9.9185 8.05507
rtibia 33.9418
rfoot -13.8046 -14.2144
rtoes -3.98333
lfemur -6.02049 -0.119509 -24.6171
ltibia 13.9501
lfoot -10.0538 14.8854
ltoes -18.4891
